<svg width="170" height="28" viewBox="0 0 170 28" fill="none" xmlns="http://www.w3.org/2000/svg">
<path d="M12.475 17.9H5.925L4.875 21H0.4L6.75 3.45H11.7L18.05 21H13.525L12.475 17.9ZM11.375 14.6L9.2 8.175L7.05 14.6H11.375ZM24.2576 2.5V21H19.9826V2.5H24.2576ZM31.6307 9.025C32.0473 8.375 32.6223 7.85 33.3557 7.45C34.089 7.05 34.9473 6.85 35.9307 6.85C37.0807 6.85 38.1223 7.14167 39.0557 7.725C39.989 8.30833 40.7223 9.14167 41.2557 10.225C41.8057 11.3083 42.0807 12.5667 42.0807 14C42.0807 15.4333 41.8057 16.7 41.2557 17.8C40.7223 18.8833 39.989 19.725 39.0557 20.325C38.1223 20.9083 37.0807 21.2 35.9307 21.2C34.964 21.2 34.1057 21 33.3557 20.6C32.6223 20.2 32.0473 19.6833 31.6307 19.05V27.65H27.3557V7.05H31.6307V9.025ZM37.7307 14C37.7307 12.9333 37.4307 12.1 36.8307 11.5C36.2473 10.8833 35.5223 10.575 34.6557 10.575C33.8057 10.575 33.0807 10.8833 32.4807 11.5C31.8973 12.1167 31.6057 12.9583 31.6057 14.025C31.6057 15.0917 31.8973 15.9333 32.4807 16.55C33.0807 17.1667 33.8057 17.475 34.6557 17.475C35.5057 17.475 36.2307 17.1667 36.8307 16.55C37.4307 15.9167 37.7307 15.0667 37.7307 14ZM52.8984 6.9C54.4984 6.9 55.7818 7.43333 56.7484 8.5C57.7151 9.55 58.1984 11 58.1984 12.85V21H53.9484V13.425C53.9484 12.4917 53.7068 11.7667 53.2234 11.25C52.7401 10.7333 52.0901 10.475 51.2734 10.475C50.4568 10.475 49.8068 10.7333 49.3234 11.25C48.8401 11.7667 48.5984 12.4917 48.5984 13.425V21H44.3234V2.5H48.5984V8.925C49.0318 8.30833 49.6234 7.81667 50.3734 7.45C51.1234 7.08333 51.9651 6.9 52.8984 6.9ZM60.3191 14C60.3191 12.5667 60.5858 11.3083 61.1191 10.225C61.6691 9.14167 62.4108 8.30833 63.3441 7.725C64.2775 7.14167 65.3191 6.85 66.4691 6.85C67.4525 6.85 68.3108 7.05 69.0441 7.45C69.7941 7.85 70.3691 8.375 70.7691 9.025V7.05H75.0441V21H70.7691V19.025C70.3525 19.675 69.7691 20.2 69.0191 20.6C68.2858 21 67.4275 21.2 66.4441 21.2C65.3108 21.2 64.2775 20.9083 63.3441 20.325C62.4108 19.725 61.6691 18.8833 61.1191 17.8C60.5858 16.7 60.3191 15.4333 60.3191 14ZM70.7691 14.025C70.7691 12.9583 70.4691 12.1167 69.8691 11.5C69.2858 10.8833 68.5691 10.575 67.7191 10.575C66.8691 10.575 66.1441 10.8833 65.5441 11.5C64.9608 12.1 64.6691 12.9333 64.6691 14C64.6691 15.0667 64.9608 15.9167 65.5441 16.55C66.1441 17.1667 66.8691 17.475 67.7191 17.475C68.5691 17.475 69.2858 17.1667 69.8691 16.55C70.4691 15.9333 70.7691 15.0917 70.7691 14.025ZM90.0098 3.45C91.8598 3.45 93.4764 3.81667 94.8598 4.55C96.2431 5.28333 97.3098 6.31667 98.0598 7.65C98.8264 8.96667 99.2098 10.4917 99.2098 12.225C99.2098 13.9417 98.8264 15.4667 98.0598 16.8C97.3098 18.1333 96.2348 19.1667 94.8348 19.9C93.4514 20.6333 91.8431 21 90.0098 21H83.4348V3.45H90.0098ZM89.7348 17.3C91.3514 17.3 92.6098 16.8583 93.5098 15.975C94.4098 15.0917 94.8598 13.8417 94.8598 12.225C94.8598 10.6083 94.4098 9.35 93.5098 8.45C92.6098 7.55 91.3514 7.1 89.7348 7.1H87.7098V17.3H89.7348ZM114.749 13.8C114.749 14.2 114.724 14.6167 114.674 15.05H104.999C105.065 15.9167 105.34 16.5833 105.824 17.05C106.324 17.5 106.932 17.725 107.649 17.725C108.715 17.725 109.457 17.275 109.874 16.375H114.424C114.19 17.2917 113.765 18.1167 113.149 18.85C112.549 19.5833 111.79 20.1583 110.874 20.575C109.957 20.9917 108.932 21.2 107.799 21.2C106.432 21.2 105.215 20.9083 104.149 20.325C103.082 19.7417 102.249 18.9083 101.649 17.825C101.049 16.7417 100.749 15.475 100.749 14.025C100.749 12.575 101.04 11.3083 101.624 10.225C102.224 9.14167 103.057 8.30833 104.124 7.725C105.19 7.14167 106.415 6.85 107.799 6.85C109.149 6.85 110.349 7.13333 111.399 7.7C112.449 8.26667 113.265 9.075 113.849 10.125C114.449 11.175 114.749 12.4 114.749 13.8ZM110.374 12.675C110.374 11.9417 110.124 11.3583 109.624 10.925C109.124 10.4917 108.499 10.275 107.749 10.275C107.032 10.275 106.424 10.4833 105.924 10.9C105.44 11.3167 105.14 11.9083 105.024 12.675H110.374ZM122.679 21.2C121.462 21.2 120.379 20.9917 119.429 20.575C118.479 20.1583 117.729 19.5917 117.179 18.875C116.629 18.1417 116.321 17.325 116.254 16.425H120.479C120.529 16.9083 120.754 17.3 121.154 17.6C121.554 17.9 122.046 18.05 122.629 18.05C123.162 18.05 123.571 17.95 123.854 17.75C124.154 17.5333 124.304 17.2583 124.304 16.925C124.304 16.525 124.096 16.2333 123.679 16.05C123.262 15.85 122.587 15.6333 121.654 15.4C120.654 15.1667 119.821 14.925 119.154 14.675C118.487 14.4083 117.912 14 117.429 13.45C116.946 12.8833 116.704 12.125 116.704 11.175C116.704 10.375 116.921 9.65 117.354 9C117.804 8.33333 118.454 7.80833 119.304 7.425C120.171 7.04167 121.196 6.85 122.379 6.85C124.129 6.85 125.504 7.28333 126.504 8.15C127.521 9.01667 128.104 10.1667 128.254 11.6H124.304C124.237 11.1167 124.021 10.7333 123.654 10.45C123.304 10.1667 122.837 10.025 122.254 10.025C121.754 10.025 121.371 10.125 121.104 10.325C120.837 10.5083 120.704 10.7667 120.704 11.1C120.704 11.5 120.912 11.8 121.329 12C121.762 12.2 122.429 12.4 123.329 12.6C124.362 12.8667 125.204 13.1333 125.854 13.4C126.504 13.65 127.071 14.0667 127.554 14.65C128.054 15.2167 128.312 15.9833 128.329 16.95C128.329 17.7667 128.096 18.5 127.629 19.15C127.179 19.7833 126.521 20.2833 125.654 20.65C124.804 21.0167 123.812 21.2 122.679 21.2ZM133.095 5.6C132.345 5.6 131.728 5.38333 131.245 4.95C130.778 4.5 130.545 3.95 130.545 3.3C130.545 2.63333 130.778 2.08333 131.245 1.65C131.728 1.2 132.345 0.974999 133.095 0.974999C133.828 0.974999 134.428 1.2 134.895 1.65C135.378 2.08333 135.62 2.63333 135.62 3.3C135.62 3.95 135.378 4.5 134.895 4.95C134.428 5.38333 133.828 5.6 133.095 5.6ZM135.22 7.05V21H130.945V7.05H135.22ZM143.618 6.85C144.601 6.85 145.459 7.05 146.193 7.45C146.943 7.85 147.518 8.375 147.918 9.025V7.05H152.193V20.975C152.193 22.2583 151.934 23.4167 151.418 24.45C150.918 25.5 150.143 26.3333 149.093 26.95C148.059 27.5667 146.768 27.875 145.218 27.875C143.151 27.875 141.476 27.3833 140.193 26.4C138.909 25.4333 138.176 24.1167 137.993 22.45H142.218C142.351 22.9833 142.668 23.4 143.168 23.7C143.668 24.0167 144.284 24.175 145.018 24.175C145.901 24.175 146.601 23.9167 147.118 23.4C147.651 22.9 147.918 22.0917 147.918 20.975V19C147.501 19.65 146.926 20.1833 146.193 20.6C145.459 21 144.601 21.2 143.618 21.2C142.468 21.2 141.426 20.9083 140.493 20.325C139.559 19.725 138.818 18.8833 138.268 17.8C137.734 16.7 137.468 15.4333 137.468 14C137.468 12.5667 137.734 11.3083 138.268 10.225C138.818 9.14167 139.559 8.30833 140.493 7.725C141.426 7.14167 142.468 6.85 143.618 6.85ZM147.918 14.025C147.918 12.9583 147.618 12.1167 147.018 11.5C146.434 10.8833 145.718 10.575 144.868 10.575C144.018 10.575 143.293 10.8833 142.693 11.5C142.109 12.1 141.818 12.9333 141.818 14C141.818 15.0667 142.109 15.9167 142.693 16.55C143.293 17.1667 144.018 17.475 144.868 17.475C145.718 17.475 146.434 17.1667 147.018 16.55C147.618 15.9333 147.918 15.0917 147.918 14.025ZM163.785 6.9C165.419 6.9 166.719 7.43333 167.685 8.5C168.669 9.55 169.16 11 169.16 12.85V21H164.91V13.425C164.91 12.4917 164.669 11.7667 164.185 11.25C163.702 10.7333 163.052 10.475 162.235 10.475C161.419 10.475 160.769 10.7333 160.285 11.25C159.802 11.7667 159.56 12.4917 159.56 13.425V21H155.285V7.05H159.56V8.9C159.994 8.28333 160.577 7.8 161.31 7.45C162.044 7.08333 162.869 6.9 163.785 6.9Z" fill="#0092E4"/>
</svg>
